<svg width="17" height="13" viewBox="0 0 17 13" fill="none" xmlns="http://www.w3.org/2000/svg">
<path d="M16.8648 3.56571C12.1587 -1.18944 4.8394 -1.1877 0.135181 3.56571C-0.0417258 3.74446 -0.0451789 4.04712 0.125884 4.23254L1.03538 5.21828C1.19848 5.39529 1.46092 5.39906 1.63038 5.22931C5.50639 1.3502 11.493 1.34933 15.3698 5.22931C15.5393 5.39906 15.8018 5.395 15.9648 5.21828L16.8743 4.23254C17.0451 4.04712 17.0417 3.74446 16.8648 3.56571ZM8.49998 9.28571C7.561 9.28571 6.79998 10.1171 6.79998 11.1429C6.79998 12.1686 7.561 13 8.49998 13C9.43897 13 10.2 12.1686 10.2 11.1429C10.2 10.1171 9.43897 9.28571 8.49998 9.28571ZM13.8834 6.86011C10.8218 3.90232 6.1747 3.90551 3.11656 6.86011C2.93328 7.03712 2.92743 7.34442 3.10142 7.53187L4.01623 8.51819C4.1756 8.68998 4.4322 8.70158 4.60193 8.54141C6.83186 6.43558 10.1732 6.44022 12.3978 8.54141C12.5675 8.70158 12.8241 8.69027 12.9835 8.51819L13.8983 7.53187C14.0725 7.34442 14.0664 7.03683 13.8834 6.86011Z" fill="white"/>
</svg>
