<svg width="225" height="225" viewBox="0 0 225 225" fill="none" xmlns="http://www.w3.org/2000/svg">
<path d="M109.732 38.8898C104.593 46.869 103.155 50.5351 103.874 53.5543C104.449 55.9984 106.03 58.0471 108.187 59.1254C109.876 59.988 109.984 60.0958 109.984 61.4616C109.984 62.8275 109.948 62.8634 108.654 63.0791C105.312 63.5823 101.142 64.7684 98.3387 65.9545C95.3554 67.2484 95.2836 67.2484 92.8754 66.8171C86.8371 65.7747 82.6677 67.1406 75.012 72.7835C70.016 76.4497 68.1829 76.3418 63.8339 72.2085C60.7788 69.3331 59.5567 69.0096 58.2268 70.6989C56.6454 72.7476 58.2628 75.8386 61.9289 77.8155C63.0431 78.3906 63.9776 79.0016 63.9776 79.1813C63.9776 79.3251 61.0663 86.9089 57.508 96.0743C53.9137 105.204 50.3195 114.441 49.4569 116.633C47.9832 120.443 47.8754 120.587 46.7971 120.695C45.8267 120.803 45.647 120.946 45.647 121.773C45.647 123.462 47.6238 128.423 49.1334 130.687C53.0511 136.438 59.4848 139.816 66.4936 139.816C70.1238 139.816 73.107 139.097 76.3419 137.372C82.0567 134.389 86.262 128.602 87.1605 122.492L87.4121 120.803L86.226 120.695C85.0399 120.587 85.0399 120.587 82.6318 114.477C79.8283 107.216 69.369 80.5112 69.1534 79.9361C69.0455 79.7204 69.9441 79.2891 71.3459 78.9656C72.6398 78.6422 75.1198 77.6358 76.8451 76.7372C78.5703 75.8386 81.3019 74.4369 82.9553 73.6102C87.5919 71.3099 91.0064 71.3099 94.7085 73.5024L96.7572 74.7604H112.32H127.883L129.932 73.5024C131.082 72.8195 132.7 72.1725 133.598 72.0287C136.977 71.5255 138.522 71.9569 145.351 75.4433C149.449 77.5279 152.576 78.8578 153.798 79.0735C154.876 79.2891 155.811 79.4688 155.847 79.5407C155.919 79.5767 152.36 88.8498 147.975 100.1L139.96 120.587L138.81 120.695C137.839 120.803 137.66 120.946 137.66 121.773C137.66 123.391 139.601 128.387 141.038 130.579C144.812 136.258 151.534 139.816 158.363 139.816C167.708 139.78 175.687 134.03 178.454 125.331C179.677 121.486 179.641 120.839 178.203 120.695L177.089 120.587L169.217 100.459C164.904 89.389 161.274 79.972 161.166 79.5407C160.986 78.8938 161.166 78.6422 162.173 78.2468C163.754 77.5998 165.946 75.6589 166.629 74.365C167.815 72.0287 166.773 69.7284 164.545 69.7284C163.61 69.7284 163.035 70.1238 161.346 71.885C159.225 74.1134 156.925 75.4433 155.164 75.4792C153.798 75.4792 151.713 74.365 148.119 71.6334C142.045 67.0687 137.588 65.8107 131.37 66.889C129.285 67.2484 128.998 67.2124 127.38 66.3858C124.828 65.1278 121.342 64.0495 117.496 63.3307L114.117 62.7196L114.01 61.3898C113.902 60.1318 113.974 60.0239 115.268 59.4848C117.065 58.73 118.898 56.9688 119.724 55.1717C120.695 53.087 120.587 50.5711 119.365 47.7316C118.215 45.0359 114.405 38.5663 112.895 36.6973L111.925 35.5112L109.732 38.8898ZM65.9185 79.3969C66.1342 79.6845 65.0919 120.443 64.8762 120.695C64.8403 120.731 61.8211 120.731 58.155 120.695L51.5415 120.587L58.119 100.28C61.7133 89.1014 64.7684 79.7564 64.8762 79.5048C65.0559 79.0016 65.631 78.9297 65.9185 79.3969ZM163.215 88.9577C164.94 94.3131 167.959 103.586 169.9 109.625L173.458 120.587L166.845 120.695C163.179 120.731 160.16 120.731 160.124 120.695C160.088 120.623 159.872 113.794 159.621 105.491C159.405 97.1885 159.117 87.8434 158.974 84.6805C158.758 79.2891 158.794 79.0016 159.441 79.1454C159.944 79.2172 160.735 81.3019 163.215 88.9577ZM74.5807 99.4169C78.139 110.379 81.0863 119.688 81.1582 120.084C81.266 120.731 81.0144 120.767 74.6166 120.767H67.9313V117.784C67.9313 116.166 67.6797 107.324 67.3922 98.123C67.1046 88.9217 66.853 80.9784 66.853 80.4033C66.853 79.7204 67.0328 79.4329 67.5 79.4329C68.0032 79.4329 69.2971 83.135 74.5807 99.4169ZM158.147 80.4033C158.147 80.9784 157.895 88.9217 157.608 98.123C157.32 107.324 157.069 116.166 157.069 117.784V120.767H150.419C145.783 120.767 143.77 120.659 143.77 120.371C143.77 120.012 147.796 107.468 153.906 88.7779C155.092 85.1118 156.242 81.5176 156.458 80.7628C156.709 79.8283 156.997 79.4329 157.464 79.4329C157.967 79.4329 158.147 79.6845 158.147 80.4033ZM84.1054 125.188C84.1054 125.835 82.4521 128.243 80.7268 130.076C79.1094 131.801 75.5511 134.245 75.1917 133.886C75.0479 133.778 75.1198 133.562 75.3355 133.419C76.3419 132.772 79.0016 128.962 79.9002 126.949L80.9066 124.72H82.524C83.5663 124.72 84.1054 124.864 84.1054 125.188ZM145.315 127.308C145.998 128.746 147.328 130.831 148.227 131.909C149.125 132.951 149.808 133.922 149.7 133.994C149.449 134.281 145.711 131.585 144.273 130.076C142.728 128.458 140.895 125.727 140.895 125.08C140.895 124.9 141.613 124.72 142.476 124.72H144.058L145.315 127.308Z" fill="black"/>
<path d="M96.3257 79.6126V81.5895H112.32H128.315V79.6126V77.6358H112.32H96.3257V79.6126Z" fill="black"/>
<path d="M98.8418 85.7229V87.6997H112.32H125.799V85.7229V83.746H112.32H98.8418V85.7229Z" fill="black"/>
<path d="M112.248 90.1079L110.343 90.2516V99.7764V109.265H112.32H114.297V99.5607C114.297 94.2053 114.261 89.8922 114.225 89.9281C114.153 89.9641 113.255 90.036 112.248 90.1079Z" fill="black"/>
<path d="M118.897 99.6686L118.79 109.265H120.874H122.923V99.7764V90.2876L120.946 90.1438L119.005 90.036L118.897 99.6686Z" fill="black"/>
<path d="M101.717 99.7404V109.265H103.873H106.03V99.7404V90.2157H103.873H101.717V99.7404Z" fill="black"/>
<path d="M98.8418 114.117V116.094H112.32H125.799V114.117V112.141H112.32H98.8418V114.117Z" fill="black"/>
<path d="M101.717 119.724C101.717 121.234 101.861 121.665 102.579 122.24C105.455 124.505 104.52 131.765 100.171 141.326L98.9492 143.986L101.034 146.214C104.844 150.383 108.402 158.722 110.702 168.93L111.709 173.422L111.745 160.735C111.781 148.55 111.745 148.047 111.062 147.364C110.199 146.502 110.127 145.1 110.918 144.345C111.637 143.626 113.362 143.59 113.937 144.309C114.62 145.136 114.476 146.717 113.614 147.4C112.859 148.011 112.859 148.191 112.895 160.735C112.895 167.815 113.039 172.955 113.218 172.344C113.362 171.733 113.865 169.72 114.297 167.851C116.669 157.572 120.515 149.089 124.504 145.244L125.762 144.022L124.828 142.009C120.766 132.987 119.472 126.446 121.162 123.642C121.593 122.959 122.168 122.24 122.42 122.097C122.743 121.917 122.923 121.126 122.923 119.868V117.891H112.32H101.717V119.724Z" fill="black"/>
<path d="M56.5735 143.698C55.9984 145.531 54.8842 147.4 53.9137 148.119C53.3386 148.586 52.8354 149.053 52.8354 149.197C52.8354 149.305 53.6981 149.557 54.7045 149.665C55.7468 149.808 59.0535 150.563 62.0367 151.318C77.0607 155.164 91.7252 162.568 104.521 172.847C109.517 176.873 108.87 175.687 102.616 169.433C91.3299 158.111 76.3418 149.341 58.8378 143.77C56.897 143.159 56.7172 143.159 56.5735 143.698Z" fill="black"/>
<path d="M162.639 145.028C155.738 147.436 153.761 148.263 147.256 151.569C137.623 156.494 129.464 162.352 122.384 169.433C116.13 175.687 115.483 176.873 120.479 172.847C130.722 164.653 141.972 158.327 154.193 153.906C158.039 152.54 167.456 150.06 170.295 149.665C171.301 149.557 172.164 149.305 172.164 149.197C172.164 149.053 171.697 148.586 171.086 148.155C170.007 147.328 168.57 144.956 168.57 143.986C168.57 143.698 168.462 143.375 168.318 143.303C168.138 143.195 165.623 143.986 162.639 145.028Z" fill="black"/>
<path d="M44.5687 150.455C44.5687 152.001 43.5623 154.085 41.9808 155.811L40.2915 157.68L43.9576 157.931C56.9688 158.794 72.2444 162.244 84.2851 167.025C92.1925 170.152 103.227 175.938 108.906 179.964C111.565 181.833 105.311 176.298 101.969 173.854C88.131 163.61 69.4409 155.343 50.2835 150.994C44.5687 149.7 44.5687 149.7 44.5687 150.455Z" fill="black"/>
<path d="M173.961 151.174C166.665 152.899 157.895 155.631 151.533 158.219C138.235 163.574 124.433 171.769 116.992 178.778L114.836 180.827L116.633 179.605C122.887 175.327 132.771 170.152 140.715 167.025C152.719 162.28 168.067 158.794 181.078 157.931L184.78 157.68L183.378 156.206C181.725 154.517 180.97 153.115 180.611 151.21C180.431 150.311 180.179 149.88 179.748 149.916C179.425 149.916 176.837 150.491 173.961 151.174Z" fill="black"/>
<path d="M32.995 162.712C32.7793 165.551 31.8808 167.564 29.7961 169.828L28.3584 171.374L40.6867 171.194C49.0253 171.05 54.6324 171.122 58.0469 171.41C74.4007 172.847 86.5133 176.585 104.521 185.679L111.781 189.381V187.045V184.708L106.461 181.222C88.9574 169.72 69.1172 163.395 42.4838 160.843C39.4287 160.555 36.0501 160.304 35.0437 160.304H33.1747L32.995 162.712Z" fill="black"/>
<path d="M182.049 160.843C155.631 163.466 135.863 169.828 118.538 181.222L113.219 184.708V187.081V189.417L120.515 185.715C138.343 176.585 150.527 172.883 166.953 171.41C170.367 171.122 175.974 171.05 184.313 171.194L196.641 171.374L195.204 169.828C193.119 167.564 192.22 165.551 192.005 162.712L191.825 160.304L189.273 160.339C187.871 160.375 184.636 160.591 182.049 160.843Z" fill="black"/>
<path d="M111.457 174.177C111.457 174.573 111.565 174.681 111.673 174.393C111.781 174.141 111.745 173.818 111.637 173.71C111.529 173.566 111.421 173.782 111.457 174.177Z" fill="black"/>
<path d="M112.895 174.177C112.895 174.573 113.003 174.681 113.111 174.393C113.219 174.141 113.183 173.818 113.075 173.71C112.967 173.566 112.859 173.782 112.895 174.177Z" fill="black"/>
</svg>
