<svg width="169" height="155" viewBox="0 0 169 155" fill="none" xmlns="http://www.w3.org/2000/svg">
<path d="M81.7324 3.88976C76.5927 11.869 75.155 15.5351 75.8738 18.5543C76.4489 20.9984 78.0304 23.0471 80.1869 24.1254C81.8762 24.988 81.984 25.0958 81.984 26.4616C81.984 27.8275 81.9481 27.8634 80.6542 28.0791C77.3115 28.5823 73.1422 29.7684 70.3387 30.9545C67.3554 32.2484 67.2836 32.2484 64.8754 31.8171C58.8371 30.7747 54.6677 32.1406 47.012 37.7835C42.016 41.4497 40.1829 41.3418 35.8339 37.2085C32.7788 34.3331 31.5567 34.0096 30.2268 35.6989C28.6454 37.7476 30.2628 40.8386 33.9289 42.8155C35.0431 43.3906 35.9776 44.0016 35.9776 44.1813C35.9776 44.3251 33.0663 51.9089 29.508 61.0743C25.9137 70.2037 22.3195 79.4409 21.4569 81.6334C19.9832 85.4433 19.8754 85.587 18.7971 85.6949C17.8267 85.8027 17.647 85.9465 17.647 86.7732C17.647 88.4624 19.6238 93.4225 21.1334 95.6869C25.0511 101.438 31.4848 104.816 38.4936 104.816C42.1238 104.816 45.107 104.097 48.3419 102.372C54.0567 99.389 58.262 93.6022 59.1605 87.492L59.4121 85.8027L58.226 85.6949C57.0399 85.587 57.0399 85.587 54.6318 79.4768C51.8283 72.2164 41.369 45.5112 41.1534 44.9361C41.0455 44.7204 41.9441 44.2891 43.3459 43.9656C44.6398 43.6422 47.1198 42.6358 48.8451 41.7372C50.5703 40.8386 53.3019 39.4369 54.9553 38.6102C59.5919 36.3099 63.0064 36.3099 66.7085 38.5024L68.7572 39.7604H84.3203H99.8834L101.932 38.5024C103.082 37.8195 104.7 37.1725 105.598 37.0287C108.977 36.5255 110.522 36.9569 117.351 40.4433C121.449 42.5279 124.576 43.8578 125.798 44.0735C126.876 44.2891 127.811 44.4688 127.847 44.5407C127.919 44.5767 124.36 53.8498 119.975 65.0998L111.96 85.587L110.81 85.6949C109.839 85.8027 109.66 85.9465 109.66 86.7732C109.66 88.3906 111.601 93.3866 113.038 95.5791C116.812 101.258 123.534 104.816 130.363 104.816C139.708 104.78 147.687 99.0295 150.454 90.3315C151.677 86.4856 151.641 85.8386 150.203 85.6949L149.089 85.587L141.217 65.4593C136.904 54.389 133.274 44.972 133.166 44.5407C132.986 43.8938 133.166 43.6422 134.173 43.2468C135.754 42.5998 137.946 40.6589 138.629 39.365C139.815 37.0287 138.773 34.7284 136.545 34.7284C135.61 34.7284 135.035 35.1238 133.346 36.885C131.225 39.1134 128.925 40.4433 127.164 40.4792C125.798 40.4792 123.713 39.365 120.119 36.6334C114.045 32.0687 109.588 30.8107 103.37 31.889C101.285 32.2484 100.998 32.2124 99.3802 31.3858C96.8283 30.1278 93.3419 29.0495 89.496 28.3307L86.1174 27.7196L86.0096 26.3898C85.9018 25.1318 85.9736 25.0239 87.2676 24.4848C89.0647 23.73 90.8978 21.9688 91.7244 20.1717C92.6949 18.087 92.5871 15.5711 91.365 12.7316C90.2149 10.0359 86.405 3.56628 84.8954 1.69727L83.9249 0.511162L81.7324 3.88976ZM37.9185 44.3969C38.1342 44.6845 37.0919 85.4433 36.8762 85.6949C36.8403 85.7308 33.8211 85.7308 30.155 85.6949L23.5415 85.587L30.119 65.2795C33.7133 54.1014 36.7684 44.7564 36.8762 44.5048C37.0559 44.0016 37.631 43.9297 37.9185 44.3969ZM135.215 53.9577C136.94 59.3131 139.959 68.5863 141.9 74.6246L145.458 85.587L138.845 85.6949C135.179 85.7308 132.16 85.7308 132.124 85.6949C132.088 85.623 131.872 78.7939 131.621 70.4912C131.405 62.1885 131.117 52.8434 130.974 49.6805C130.758 44.2891 130.794 44.0016 131.441 44.1454C131.944 44.2172 132.735 46.3019 135.215 53.9577ZM46.5807 64.4169C50.139 75.3794 53.0863 84.6885 53.1582 85.0839C53.266 85.7308 53.0144 85.7668 46.6166 85.7668H39.9313V82.7835C39.9313 81.1661 39.6797 72.3243 39.3922 63.123C39.1046 53.9217 38.853 45.9784 38.853 45.4033C38.853 44.7204 39.0328 44.4329 39.5 44.4329C40.0032 44.4329 41.2971 48.135 46.5807 64.4169ZM130.147 45.4033C130.147 45.9784 129.895 53.9217 129.608 63.123C129.32 72.3243 129.069 81.1661 129.069 82.7835V85.7668H122.419C117.783 85.7668 115.77 85.6589 115.77 85.3714C115.77 85.012 119.796 72.468 125.906 53.7779C127.092 50.1118 128.242 46.5176 128.458 45.7628C128.709 44.8283 128.997 44.4329 129.464 44.4329C129.967 44.4329 130.147 44.6845 130.147 45.4033ZM56.1054 90.1877C56.1054 90.8347 54.4521 93.2428 52.7268 95.0759C51.1094 96.8011 47.5511 99.2452 47.1917 98.8858C47.0479 98.7779 47.1198 98.5623 47.3355 98.4185C48.3419 97.7716 51.0016 93.9617 51.9002 91.9489L52.9066 89.7204H54.524C55.5663 89.7204 56.1054 89.8642 56.1054 90.1877ZM117.315 92.3083C117.998 93.746 119.328 95.8307 120.227 96.9089C121.125 97.9513 121.808 98.9217 121.7 98.9936C121.449 99.2811 117.711 96.5855 116.273 95.0759C114.728 93.4585 112.895 90.7268 112.895 90.0799C112.895 89.9001 113.613 89.7204 114.476 89.7204H116.058L117.315 92.3083Z" fill="black"/>
<path d="M68.3257 44.6126V46.5895H84.3201H100.315V44.6126V42.6358H84.3201H68.3257V44.6126Z" fill="black"/>
<path d="M70.8418 50.7229V52.6997H84.3202H97.7987V50.7229V48.746H84.3202H70.8418V50.7229Z" fill="black"/>
<path d="M84.2482 55.1079L82.3433 55.2516V64.7764V74.2652H84.3201H86.2969V64.5607C86.2969 59.2053 86.261 54.8922 86.2251 54.9281C86.1532 54.9641 85.2546 55.036 84.2482 55.1079Z" fill="black"/>
<path d="M90.8974 64.6686L90.7896 74.2652H92.8742H94.9229V64.7764V55.2876L92.9461 55.1438L91.0052 55.036L90.8974 64.6686Z" fill="black"/>
<path d="M73.7168 64.7404V74.2652H75.8733H78.0299V64.7404V55.2157H75.8733H73.7168V64.7404Z" fill="black"/>
<path d="M70.8418 79.1174V81.0942H84.3202H97.7987V79.1174V77.1406H84.3202H70.8418V79.1174Z" fill="black"/>
<path d="M73.7168 84.7244C73.7168 86.234 73.8606 86.6653 74.5794 87.2404C77.4548 89.5048 76.5203 96.7651 72.1713 106.326L70.9492 108.986L73.0339 111.214C76.8438 115.383 80.4021 123.722 82.7024 133.93L83.7088 138.422L83.7447 125.735C83.7807 113.55 83.7447 113.047 83.0618 112.364C82.1992 111.502 82.1273 110.1 82.9181 109.345C83.6369 108.626 85.3622 108.59 85.9372 109.309C86.6201 110.136 86.4764 111.717 85.6138 112.4C84.859 113.011 84.859 113.191 84.8949 125.735C84.8949 132.815 85.0387 137.955 85.2184 137.344C85.3622 136.733 85.8654 134.72 86.2967 132.851C88.6689 122.572 92.5147 114.089 96.5043 110.244L97.7623 109.022L96.8278 107.009C92.7663 97.9872 91.4724 91.4456 93.1617 88.6421C93.593 87.9592 94.1681 87.2404 94.4197 87.0966C94.7431 86.9169 94.9229 86.1262 94.9229 84.8682V82.8913H84.3198H73.7168V84.7244Z" fill="black"/>
<path d="M28.5735 108.698C27.9984 110.531 26.8842 112.4 25.9137 113.119C25.3386 113.586 24.8354 114.053 24.8354 114.197C24.8354 114.305 25.6981 114.557 26.7045 114.665C27.7468 114.808 31.0535 115.563 34.0367 116.318C49.0607 120.164 63.7252 127.568 76.5208 137.847C81.5168 141.873 80.8698 140.687 74.6158 134.433C63.3299 123.111 48.3418 114.341 30.8378 108.77C28.897 108.159 28.7172 108.159 28.5735 108.698Z" fill="black"/>
<path d="M134.639 110.028C127.738 112.436 125.761 113.263 119.256 116.569C109.623 121.494 101.464 127.352 94.3837 134.433C88.1297 140.687 87.4827 141.873 92.4787 137.847C102.722 129.653 113.972 123.327 126.193 118.906C130.039 117.54 139.456 115.06 142.295 114.665C143.301 114.557 144.164 114.305 144.164 114.197C144.164 114.053 143.697 113.586 143.086 113.155C142.007 112.328 140.57 109.956 140.57 108.986C140.57 108.698 140.462 108.375 140.318 108.303C140.138 108.195 137.623 108.986 134.639 110.028Z" fill="black"/>
<path d="M16.5687 115.455C16.5687 117.001 15.5623 119.085 13.9808 120.811L12.2915 122.68L15.9576 122.931C28.9688 123.794 44.2444 127.244 56.2851 132.025C64.1925 135.152 75.2268 140.938 80.9057 144.964C83.5655 146.833 77.3115 141.298 73.9688 138.854C60.131 128.61 41.4409 120.343 22.2835 115.994C16.5687 114.7 16.5687 114.7 16.5687 115.455Z" fill="black"/>
<path d="M145.961 116.174C138.665 117.899 129.895 120.631 123.533 123.219C110.235 128.574 96.4326 136.769 88.9925 143.778L86.8359 145.827L88.6331 144.605C94.8871 140.327 104.771 135.152 112.715 132.025C124.719 127.28 140.067 123.794 153.078 122.931L156.78 122.68L155.378 121.206C153.725 119.517 152.97 118.115 152.611 116.21C152.431 115.311 152.179 114.88 151.748 114.916C151.425 114.916 148.837 115.491 145.961 116.174Z" fill="black"/>
<path d="M4.99498 127.712C4.77933 130.551 3.88076 132.564 1.7961 134.828L0.358398 136.374L12.6867 136.194C21.0253 136.05 26.6324 136.122 30.0469 136.41C46.4007 137.847 58.5133 141.585 76.5205 150.679L83.7809 154.381V152.045V149.708L78.4614 146.222C60.9574 134.72 41.1172 128.395 14.4838 125.843C11.4287 125.555 8.05009 125.304 7.0437 125.304H5.17469L4.99498 127.712Z" fill="black"/>
<path d="M154.049 125.843C127.631 128.466 107.863 134.828 90.5382 146.222L85.2188 149.708V152.081V154.417L92.5151 150.715C110.343 141.585 122.527 137.883 138.953 136.41C142.367 136.122 147.974 136.05 156.313 136.194L168.641 136.374L167.204 134.828C165.119 132.564 164.22 130.551 164.005 127.712L163.825 125.304L161.273 125.339C159.871 125.375 156.636 125.591 154.049 125.843Z" fill="black"/>
<path d="M83.4572 139.177C83.4572 139.573 83.5651 139.681 83.6729 139.393C83.7807 139.141 83.7448 138.818 83.637 138.71C83.5291 138.566 83.4213 138.782 83.4572 139.177Z" fill="black"/>
<path d="M84.8952 139.177C84.8952 139.573 85.0031 139.681 85.1109 139.393C85.2187 139.141 85.1828 138.818 85.0749 138.71C84.9671 138.566 84.8593 138.782 84.8952 139.177Z" fill="black"/>
</svg>
